<?xml version="1.0" encoding="UTF-8"?>
<svg width="695px" height="655px" viewBox="0 0 695 655" version="1.1" xmlns="http://www.w3.org/2000/svg" xmlns:xlink="http://www.w3.org/1999/xlink">
    <!-- Generator: Sketch 50.2 (55047) - http://www.bohemiancoding.com/sketch -->
    <title>Untitled 15</title>
    <desc>Created with Sketch.</desc>
    <defs>
        <filter x="-1.0%" y="-0.8%" width="102.0%" height="102.2%" filterUnits="objectBoundingBox" id="filter-1">
            <feOffset dx="0" dy="2" in="SourceAlpha" result="shadowOffsetOuter1"></feOffset>
            <feGaussianBlur stdDeviation="2" in="shadowOffsetOuter1" result="shadowBlurOuter1"></feGaussianBlur>
            <feColorMatrix values="0 0 0 0 1   0 0 0 0 1   0 0 0 0 1  0 0 0 0.5 0" type="matrix" in="shadowBlurOuter1" result="shadowMatrixOuter1"></feColorMatrix>
            <feMerge>
                <feMergeNode in="shadowMatrixOuter1"></feMergeNode>
                <feMergeNode in="SourceGraphic"></feMergeNode>
            </feMerge>
        </filter>
    </defs>
    <g id="Page-1" stroke="none" stroke-width="1" fill="none" fill-rule="evenodd">
        <g id="Group-4" transform="translate(4.000000, 2.000000)">
            <g id="Group-3">
                <g id="Group" filter="url(#filter-1)" fill="#FFFFFF">
                    <g id="Footer" transform="translate(101.000000, 0.000000)">
                        <ellipse id="Oval-16" opacity="0.140000001" cx="242" cy="241.5" rx="241" ry="241.5"></ellipse>
                        <ellipse id="Oval-16" opacity="0.199999988" cx="242" cy="274.5" rx="241" ry="241.5"></ellipse>
                        <ellipse id="Oval-16" opacity="0.270813899" cx="241" cy="311.5" rx="241" ry="241.5"></ellipse>
                    </g>
                    <g id="Footer" transform="translate(101.000000, 94.000000)">
                        <ellipse id="Oval-16" opacity="0.140000001" cx="242" cy="241.5" rx="241" ry="241.5"></ellipse>
                        <ellipse id="Oval-16" opacity="0.199999988" cx="242" cy="274.5" rx="241" ry="241.5"></ellipse>
                        <ellipse id="Oval-16" opacity="0.270813899" cx="241" cy="311.5" rx="241" ry="241.5"></ellipse>
                    </g>
                    <g id="Footer" transform="translate(405.672644, 334.288809) rotate(91.000000) translate(-405.672644, -334.288809) translate(164.172644, 57.788809)">
                        <ellipse id="Oval-16" opacity="0.140000001" cx="242" cy="241.5" rx="241" ry="241.5"></ellipse>
                        <ellipse id="Oval-16" opacity="0.199999988" cx="242" cy="274.5" rx="241" ry="241.5"></ellipse>
                        <ellipse id="Oval-16" opacity="0.270813899" cx="241" cy="311.5" rx="241" ry="241.5"></ellipse>
                    </g>
                    <g id="Footer" transform="translate(280.672644, 337.288809) scale(-1, 1) rotate(91.000000) translate(-280.672644, -337.288809) translate(39.172644, 60.788809)">
                        <ellipse id="Oval-16" opacity="0.140000001" cx="242" cy="241.5" rx="241" ry="241.5"></ellipse>
                        <ellipse id="Oval-16" opacity="0.199999988" cx="242" cy="274.5" rx="241" ry="241.5"></ellipse>
                        <ellipse id="Oval-16" opacity="0.270813899" cx="241" cy="311.5" rx="241" ry="241.5"></ellipse>
                    </g>
                    <circle id="Oval-13" stroke="#C1E3FD" stroke-width="42" cx="342.5" cy="341.5" r="242.5"></circle>
                </g>
                <path d="M197,343 C197,354.046 188.046,363 177,363 C165.954,363 157,354.046 157,343 C157,331.954 165.954,323 177,323 C188.046,323 197,331.954 197,343 Z" id="Shape" fill="#4FCEDB" fill-rule="nonzero"></path>
                <g id="2040688" opacity="0.325055804" transform="translate(123.000000, 120.000000)" fill-rule="nonzero">
                    <ellipse id="Oval" fill="#A4C9FF" cx="221" cy="219.5" rx="210" ry="209.5"></ellipse>
                    <path d="M221,440 C99.1391423,440 0,341.308745 0,220.00105 C0,98.6933551 99.1391423,0 221,0 C342.860858,0 442,98.6912551 442,219.99895 C442,341.306645 342.860858,440 221,440 Z M221,8.39979191 C103.791463,8.39979191 8.43575845,103.32374 8.43575845,219.99895 C8.43575845,336.67416 103.791463,431.600208 221,431.600208 C338.208537,431.600208 433.564242,336.67626 433.564242,220.00105 C433.564242,103.32584 338.208537,8.39979191 221,8.39979191 Z" id="Shape" fill="#3762CC"></path>
                </g>
                <g id="Group-2" transform="translate(160.000000, 250.000000)" fill-rule="nonzero">
                    <path d="M57,78.5365854 C57,74.8188878 60.0084,71.804878 63.7191781,71.804878 L126.431507,71.804878 C130.142285,71.804878 133.150685,74.8188878 133.150685,78.5365854 C133.150685,82.2542829 130.142285,85.2682927 126.431507,85.2682927 L63.7191781,85.2682927 C60.0084,85.2682927 57,82.2542829 57,78.5365854 Z M63.7191781,13.4634146 L180.184932,13.4634146 C183.89571,13.4634146 186.90411,10.4494049 186.90411,6.73170732 C186.90411,3.01400976 183.89571,0 180.184932,0 L63.7191781,0 C60.0084,0 57,3.01400976 57,6.73170732 C57,10.4494049 60.0084,13.4634146 63.7191781,13.4634146 Z M63.7191781,40.3902439 L153.308219,40.3902439 C157.018997,40.3902439 160.027397,37.3762341 160.027397,33.6585366 C160.027397,29.940839 157.018997,26.9268293 153.308219,26.9268293 L63.7191781,26.9268293 C60.0084,26.9268293 57,29.940839 57,33.6585366 C57,37.3762341 60.0084,40.3902439 63.7191781,40.3902439 Z M207.061644,13.4634146 L278.732877,13.4634146 C282.443655,13.4634146 285.452055,10.4494049 285.452055,6.73170732 C285.452055,3.01400976 282.443655,0 278.732877,0 L207.061644,0 C203.350866,0 200.342466,3.01400976 200.342466,6.73170732 C200.342466,10.4494049 203.350866,13.4634146 207.061644,13.4634146 Z M278.732877,71.804878 L153.308219,71.804878 C149.597441,71.804878 146.589041,74.8188878 146.589041,78.5365854 C146.589041,82.2542829 149.597441,85.2682927 153.308219,85.2682927 L278.732877,85.2682927 C282.443655,85.2682927 285.452055,82.2542829 285.452055,78.5365854 C285.452055,74.8188878 282.443655,71.804878 278.732877,71.804878 Z M63.7191781,157.073171 L90.5958904,157.073171 C94.3066685,157.073171 97.3150685,154.059161 97.3150685,150.341463 C97.3150685,146.623766 94.3066685,143.609756 90.5958904,143.609756 L63.7191781,143.609756 C60.0084,143.609756 57,146.623766 57,150.341463 C57,154.059161 60.0084,157.073171 63.7191781,157.073171 Z M377.280822,71.804878 L305.609589,71.804878 C301.898811,71.804878 298.890411,74.8188878 298.890411,78.5365854 C298.890411,82.2542829 301.898811,85.2682927 305.609589,85.2682927 L377.280822,85.2682927 C380.9916,85.2682927 384,82.2542829 384,78.5365854 C384,74.8188878 380.9916,71.804878 377.280822,71.804878 Z M287.691781,98.7317073 L63.7191781,98.7317073 C60.0084,98.7317073 57,101.745717 57,105.463415 C57,109.181112 60.0084,112.195122 63.7191781,112.195122 L287.691781,112.195122 C291.402559,112.195122 294.410959,109.181112 294.410959,105.463415 C294.410959,101.745717 291.402559,98.7317073 287.691781,98.7317073 Z M126.431507,170.536585 L63.7191781,170.536585 C60.0084,170.536585 57,173.550595 57,177.268293 C57,180.98599 60.0084,184 63.7191781,184 L126.431507,184 C130.142285,184 133.150685,180.98599 133.150685,177.268293 C133.150685,173.550595 130.142285,170.536585 126.431507,170.536585 Z M278.732877,143.609756 L117.472603,143.609756 C113.761825,143.609756 110.753425,146.623766 110.753425,150.341463 C110.753425,154.059161 113.761825,157.073171 117.472603,157.073171 L278.732877,157.073171 C282.443655,157.073171 285.452055,154.059161 285.452055,150.341463 C285.452055,146.623766 282.443655,143.609756 278.732877,143.609756 Z" id="Shape" fill="#B7B7B7"></path>
                    <path d="M158.694325,177.268293 C158.694325,180.98599 155.681451,184 151.965154,184 L150.170709,184 C146.454413,184 143.441539,180.98599 143.441539,177.268293 C143.441539,173.550595 146.454413,170.536585 150.170709,170.536585 L151.965154,170.536585 C155.681451,170.536585 158.694325,173.550595 158.694325,177.268293 Z M179.779058,170.536585 L177.984613,170.536585 C174.268316,170.536585 171.255443,173.550595 171.255443,177.268293 C171.255443,180.98599 174.268316,184 177.984613,184 L179.779058,184 C183.495355,184 186.508228,180.98599 186.508228,177.268293 C186.508228,173.550595 183.495355,170.536585 179.779058,170.536585 Z M207.592962,170.536585 L205.798517,170.536585 C202.08222,170.536585 199.069346,173.550595 199.069346,177.268293 C199.069346,180.98599 202.08222,184 205.798517,184 L207.592962,184 C211.309258,184 214.322132,180.98599 214.322132,177.268293 C214.322132,173.550595 211.309258,170.536585 207.592962,170.536585 Z M89.1595654,143.609756 L76,143.609756 C79.7162964,143.609756 82.7291703,146.623766 82.7291703,150.341463 C82.7291703,154.059161 79.7162964,157.073171 76,157.073171 L89.1595654,157.073171 C92.8758618,157.073171 95.8887356,154.059161 95.8887356,150.341463 C95.8887356,146.623766 92.8758618,143.609756 89.1595654,143.609756 Z M125.048473,170.536585 L111.888908,170.536585 C115.605204,170.536585 118.618078,173.550595 118.618078,177.268293 C118.618078,180.98599 115.605204,184 111.888908,184 L125.048473,184 C128.76477,184 131.777644,180.98599 131.777644,177.268293 C131.777644,173.550595 128.76477,170.536585 125.048473,170.536585 Z M264.416767,85.2682927 L277.576333,85.2682927 C281.292629,85.2682927 284.305503,82.2542829 284.305503,78.5365854 C284.305503,74.8188878 281.292629,71.804878 277.576333,71.804878 L264.416767,71.804878 C268.133064,71.804878 271.145938,74.8188878 271.145938,78.5365854 C271.145938,82.2542829 268.133064,85.2682927 264.416767,85.2682927 Z M125.048473,71.804878 L111.888908,71.804878 C115.605204,71.804878 118.618078,74.8188878 118.618078,78.5365854 C118.618078,82.2542829 115.605204,85.2682927 111.888908,85.2682927 L125.048473,85.2682927 C128.76477,85.2682927 131.777644,82.2542829 131.777644,78.5365854 C131.777644,74.8188878 128.76477,71.804878 125.048473,71.804878 Z M264.416767,13.4634146 L277.576333,13.4634146 C281.292629,13.4634146 284.305503,10.4494049 284.305503,6.73170732 C284.305503,3.01400976 281.292629,0 277.576333,0 L264.416767,0 C268.133064,0 271.145938,3.01400976 271.145938,6.73170732 C271.145938,10.4494049 268.133064,13.4634146 264.416767,13.4634146 Z M277.576333,143.609756 L264.416767,143.609756 C268.133064,143.609756 271.145938,146.623766 271.145938,150.341463 C271.145938,154.059161 268.133064,157.073171 264.416767,157.073171 L277.576333,157.073171 C281.292629,157.073171 284.305503,154.059161 284.305503,150.341463 C284.305503,146.623766 281.292629,143.609756 277.576333,143.609756 Z M376.27083,71.804878 L363.111264,71.804878 C366.827561,71.804878 369.840435,74.8188878 369.840435,78.5365854 C369.840435,82.2542829 366.827561,85.2682927 363.111264,85.2682927 L376.27083,85.2682927 C379.987126,85.2682927 383,82.2542829 383,78.5365854 C383,74.8188878 379.987126,71.804878 376.27083,71.804878 Z M286.54856,98.7317073 L273.388994,98.7317073 C277.105291,98.7317073 280.118165,101.745717 280.118165,105.463415 C280.118165,109.181112 277.105291,112.195122 273.388994,112.195122 L286.54856,112.195122 C290.264856,112.195122 293.27773,109.181112 293.27773,105.463415 C293.27773,101.745717 290.264856,98.7317073 286.54856,98.7317073 Z M165.72227,13.4634146 L178.881835,13.4634146 C182.598132,13.4634146 185.611006,10.4494049 185.611006,6.73170732 C185.611006,3.01400976 182.598132,0 178.881835,0 L165.72227,0 C169.438567,0 172.45144,3.01400976 172.45144,6.73170732 C172.45144,10.4494049 169.438567,13.4634146 165.72227,13.4634146 Z M151.965154,26.9268293 L138.805589,26.9268293 C142.521886,26.9268293 145.534759,29.940839 145.534759,33.6585366 C145.534759,37.3762341 142.521886,40.3902439 138.805589,40.3902439 L151.965154,40.3902439 C155.681451,40.3902439 158.694325,37.3762341 158.694325,33.6585366 C158.694325,29.940839 155.681451,26.9268293 151.965154,26.9268293 Z" id="Shape" fill="#A0A0A0"></path>
                    <path d="M0,21 C0,11.0586 8.0586,3 18,3 C27.9414,3 36,11.0586 36,21 C36,30.9414 27.9414,39 18,39 C8.0586,39 0,30.9414 0,21 Z M18,147 C8.0586,147 0,155.0586 0,165 C0,174.9414 8.0586,183 18,183 C27.9414,183 36,174.9414 36,165 C36,155.0586 27.9414,147 18,147 Z" id="Shape" fill="#206BA8"></path>
                </g>
                <g id="2040688" opacity="0.493805804" transform="translate(123.000000, 120.000000)" fill-rule="nonzero">
                    <ellipse id="Oval" fill="#A4C9FF" cx="221" cy="219.5" rx="210" ry="209.5"></ellipse>
                    <g id="Group" transform="translate(4.000000, 4.000000)" fill="#E0EBFC">
                        <path d="M217,431.98316 C97.7026699,431.98316 0.646786408,335.18273 0.646786408,216.197334 C0.646786408,97.2119394 97.7026699,0.41361074 217,0.41361074 C336.29733,0.41361074 433.353214,97.2140412 433.353214,216.199436 C433.353214,335.184831 336.29733,431.98316 217,431.98316 Z M217,13.0246754 C104.674058,13.0246754 13.2875631,104.169043 13.2875631,216.199436 C13.2875631,328.229829 104.674058,419.372095 217,419.372095 C329.325942,419.372095 420.712437,328.227727 420.712437,216.197334 C420.712437,104.166942 329.325942,13.0246754 217,13.0246754 Z" id="Shape"></path>
                        <path d="M217,431.865457 C183.124825,431.865457 151.560806,408.942745 128.126913,367.322028 C105.337699,326.846816 92.7875146,273.169921 92.7875146,216.18052 C92.7875146,159.191118 105.337699,105.512122 128.126913,65.0390116 C151.560806,23.4161927 183.124825,0.493480816 217,0.493480816 C250.875175,0.493480816 282.439194,23.4161927 305.873087,65.0369097 C328.662301,105.51002 341.212485,159.186915 341.212485,216.178418 C341.212485,273.169921 328.662301,326.846816 305.873087,367.322028 C282.439194,408.944847 250.875175,431.865457 217,431.865457 Z M217,13.1045455 C155.479447,13.1045455 105.428291,104.202673 105.428291,216.178418 C105.428291,328.154163 155.479447,419.254392 217,419.254392 C278.520553,419.254392 328.571709,328.156265 328.571709,216.178418 C328.571709,104.204775 278.520553,13.1045455 217,13.1045455 Z" id="Shape"></path>
                        <path d="M213.570136,138.73387 C155.940835,138.73387 101.711903,116.397572 60.8758738,75.8361848 C58.4362039,73.4127585 58.3898544,69.4865137 60.770534,67.0063377 C102.004748,24.0635607 157.48933,0.41361074 217,0.41361074 C246.096961,0.41361074 274.342777,6.08438615 300.953718,17.2704005 C326.705087,28.1348327 349.820854,43.6779699 369.671087,63.4668322 C372.104437,65.8923603 372.146573,69.8165033 369.763786,72.2924756 C328.561175,115.136466 273.09134,138.73387 213.570136,138.73387 Z M74.3193398,71.2604702 C112.205854,106.687053 161.407971,126.122805 213.570136,126.122805 C267.51465,126.122805 317.926068,105.541548 356.223408,68.0215284 C338.568456,51.4526913 318.349534,38.3014527 296.038563,28.8872929 C270.997184,18.3612576 244.403097,13.0225736 217.002107,13.0225736 C163.068126,13.0246754 112.648282,33.6563772 74.3193398,71.2604702 Z" id="Shape"></path>
                        <path d="M217.570942,431.865457 C159.781524,431.865457 105.451466,409.430373 64.5880485,368.69243 C62.154699,366.266902 62.1125631,362.342759 64.4953495,359.866787 C105.697961,317.022796 161.169903,293.427494 220.689,293.427494 C278.478417,293.427494 332.808476,315.862578 373.671893,356.600521 C376.105243,359.026049 376.147379,362.950192 373.764592,365.426164 C332.561981,408.270155 277.090039,431.865457 217.570942,431.865457 Z M78.0357282,364.137734 C115.953845,399.72826 165.259194,419.254392 217.570942,419.254392 C271.515456,419.254392 321.926874,398.673135 360.224214,361.153115 C322.306097,325.562589 273.002854,306.036457 220.689,306.036457 C166.744485,306.038559 116.335175,326.619817 78.0357282,364.137734 Z" id="Shape"></path>
                        <path d="M427.032825,228.772668 L6.96717476,228.772668 C3.47621359,228.772668 0.646786408,225.949891 0.646786408,222.467135 C0.646786408,218.98438 3.47621359,216.161603 6.96717476,216.161603 L427.032825,216.161603 C430.523786,216.161603 433.353214,218.98438 433.353214,222.467135 C433.353214,225.949891 430.523786,228.772668 427.032825,228.772668 Z" id="Shape"></path>
                    </g>
                    <path d="M221,440 C99.1391423,440 0,341.308745 0,220.00105 C0,98.6933551 99.1391423,0 221,0 C342.860858,0 442,98.6912551 442,219.99895 C442,341.306645 342.860858,440 221,440 Z M221,8.39979191 C103.791463,8.39979191 8.43575845,103.32374 8.43575845,219.99895 C8.43575845,336.67416 103.791463,431.600208 221,431.600208 C338.208537,431.600208 433.564242,336.67626 433.564242,220.00105 C433.564242,103.32584 338.208537,8.39979191 221,8.39979191 Z" id="Shape" fill="#3762CC"></path>
                </g>
            </g>
            <rect id="Rectangle-2" fill="#7C98DD" x="130" y="306" width="429" height="87"></rect>
            <g id="default-monochrome-white" transform="translate(163.000000, 320.000000)" fill="#FFFFFF" fill-rule="nonzero">
                <path d="M23.4112203,42.8971958 C13.2243045,42.8971958 5.23365042,33.5981304 5.23365042,23.7383175 C5.23365042,13.8785045 13.2243045,4.5794392 23.4112203,4.5794392 C29.4859866,4.5794392 34.2056127,7.24299057 37.1028089,10.3271027 C37.6168276,10.8411214 38.0841173,10.8411214 38.598136,10.2803737 L40.5140238,8.17757 C41.0280425,7.57009337 41.0747715,7.24299057 40.5607528,6.72897188 C36.3551454,2.52336446 29.7663604,0 23.4112203,0 C10.5140242,0 5.62290279e-06,10.7009345 5.62290279e-06,23.7383175 C5.62290279e-06,36.7757005 10.5140242,47.4766349 23.4112203,47.4766349 C29.7663604,47.4766349 36.3551454,44.9532705 40.5607528,40.7476631 C41.1682294,40.1401864 41.1682294,39.8130836 40.6074818,39.158878 L38.644865,37.1028033 C38.2243042,36.6355136 37.8037435,36.4953267 37.2429958,37.0093454 C34.1588837,40.2336444 29.4859866,42.8971958 23.4112203,42.8971958 Z M67.6635562,17.4766353 C68.4112198,17.4766353 68.6448646,17.2429904 68.8317805,16.4953269 L69.2056123,13.5514017 C69.3457992,12.8971961 69.2056123,12.6168223 68.3177618,12.6168223 C59.0186965,12.6168223 55.9813134,18.1775699 54.6729022,20.9345792 L53.9252386,14.3925232 C53.5981358,13.5981307 53.317762,13.3177569 52.8037433,13.3177569 L51.1682293,13.3177569 C50.4205658,13.3177569 50.1869209,13.5981307 50.1869209,14.3925232 L50.1869209,45.6074761 C50.1869209,46.3551396 50.4205658,46.6355135 51.1682293,46.6355135 L54.1121545,46.6355135 C54.8130891,46.6355135 55.0934629,46.3551396 55.0934629,45.6074761 L55.0934629,29.485981 C55.0934629,23.4112147 59.1588834,17.4766353 67.6635562,17.4766353 Z M89.4392569,39.3925229 L89.345799,39.3925229 L78.3177617,14.3925232 C77.897201,13.5514017 77.6635561,13.3177569 77.0093505,13.3177569 L73.5981356,13.3177569 C72.897201,13.3177569 72.7570141,13.5981307 73.0841169,14.3925232 L86.7289766,44.9532705 L80.5140234,58.9252329 C80.1401916,59.7196255 80.3271075,59.9999993 81.074771,59.9999993 L84.392528,59.9999993 C85.0467336,59.9999993 85.3738364,59.7663544 85.7476682,58.9252329 L105.607481,14.3925232 C105.981313,13.5981307 105.794397,13.3177569 105.046733,13.3177569 L101.728976,13.3177569 C101.074771,13.3177569 100.747668,13.5514017 100.373836,14.3925232 L89.4392569,39.3925229 Z M117.289724,39.7196257 C118.130845,41.5420556 121.682247,47.336448 129.392527,47.336448 C138.551406,47.336448 144.532714,39.5794388 144.532714,29.9999996 C144.532714,20.5140184 138.551406,12.6168223 129.392527,12.6168223 C121.682247,12.6168223 118.130845,17.990654 116.588789,20.4672895 L116.074771,14.3925232 C115.747668,13.5981307 115.514023,13.3177569 114.953275,13.3177569 L113.36449,13.3177569 C112.663556,13.3177569 112.383182,13.5981307 112.383182,14.3925232 L112.383182,58.9252329 C112.383182,59.7196255 112.663556,59.9999993 113.36449,59.9999993 L116.308415,59.9999993 C117.056079,59.9999993 117.289724,59.7196255 117.289724,58.9252329 L117.289724,39.7196257 Z M128.504677,17.0093456 C135.280378,17.0093456 139.672901,22.7570091 139.672901,29.9999996 C139.672901,36.7757005 135.280378,42.8971958 128.504677,42.8971958 C121.635518,42.8971958 117.289724,36.4953267 117.289724,29.9532707 C117.289724,23.4579436 121.635518,17.0093456 128.504677,17.0093456 Z M173.037387,45.794392 C173.644863,45.4672892 173.691592,45.1869154 173.504676,44.5327098 L173.084116,42.429906 C172.850471,41.5420556 172.663555,41.4485976 171.775705,41.9158874 C170.140191,42.7570088 169.112153,42.8971958 167.289723,42.8971958 C162.056078,42.8971958 159.766359,40.0934575 159.766359,32.4299062 L159.766359,17.3831774 L171.588789,17.3831774 C172.383181,17.3831774 172.570097,17.1495325 172.570097,16.35514 L172.570097,14.3925232 C172.570097,13.5514017 172.336452,13.3177569 171.588789,13.3177569 L159.766359,13.3177569 L159.766359,6.58878497 C159.766359,5.79439245 159.579443,5.5607476 158.78505,5.5607476 L155.887854,5.5607476 C155.093462,5.5607476 154.906546,5.79439245 154.906546,6.58878497 L154.906546,13.3177569 L151.728976,13.3177569 C150.934583,13.3177569 150.654209,13.5514017 150.654209,14.3925232 L150.654209,16.35514 C150.654209,17.1495325 150.934583,17.3831774 151.728976,17.3831774 L154.906546,17.3831774 L154.906546,32.8504669 C154.906546,41.9158874 158.130845,47.336448 166.775705,47.336448 C167.616826,47.336448 170.420564,47.336448 173.037387,45.794392 Z M208.878508,39.8130836 C208.364489,39.252336 208.084115,39.3925229 207.383181,39.7663547 C204.25234,42.0560743 200.327106,43.0373827 197.102807,43.0373827 C190.514022,43.0373827 184.953274,37.8037379 184.485985,31.7289716 L211.775704,31.7289716 C212.616826,31.7289716 212.757012,31.4485978 212.757012,30.6542052 C212.757012,20.8411212 206.775704,12.6168223 196.588788,12.6168223 C187.056078,12.6168223 179.439256,20.4672895 179.439256,29.9999996 C179.439256,39.5794388 187.056078,47.336448 196.915891,47.336448 C201.775704,47.336448 207.056078,45.794392 210.14019,42.7570088 C210.60748,42.3364481 210.60748,41.9158874 210.14019,41.3551397 L208.878508,39.8130836 Z M184.626172,28.3177567 C184.813088,22.4299063 189.766359,16.7289718 196.542059,16.7289718 C203.177573,16.7289718 207.42991,22.4299063 207.710284,28.3177567 L184.626172,28.3177567 Z M239.485984,17.4766353 C240.280377,17.4766353 240.467292,17.2429904 240.700937,16.4953269 L241.074769,13.5514017 C241.214956,12.8971961 241.074769,12.6168223 240.14019,12.6168223 C230.887853,12.6168223 227.85047,18.1775699 226.542059,20.9345792 L225.747666,14.3925232 C225.420564,13.5981307 225.186919,13.3177569 224.6729,13.3177569 L223.037386,13.3177569 C222.289723,13.3177569 222.056078,13.5981307 222.056078,14.3925232 L222.056078,45.6074761 C222.056078,46.3551396 222.289723,46.6355135 223.037386,46.6355135 L225.981311,46.6355135 C226.682246,46.6355135 226.96262,46.3551396 226.96262,45.6074761 L226.96262,29.485981 C226.96262,23.4112147 230.981311,17.4766353 239.485984,17.4766353 Z M245.046732,43.5514014 C245.046732,45.700934 246.682246,47.336448 248.878507,47.336448 C250.934582,47.336448 252.663554,45.700934 252.663554,43.5514014 C252.663554,41.4018687 250.934582,39.7196257 248.878507,39.7196257 C246.682246,39.7196257 245.046732,41.4018687 245.046732,43.5514014 Z M309.392525,11.495327 L313.177572,45.6074761 C313.224301,46.3551396 313.411217,46.6355135 314.15888,46.6355135 L317.33645,46.6355135 C318.130843,46.6355135 318.411217,46.3084107 318.317759,45.6074761 L312.850469,0.560747657 C312.757011,0.140186914 312.710282,0 312.242993,0 L311.869161,0 C311.588787,0 311.401871,0.0467289714 311.074768,0.560747657 L290.140189,40.1401864 L269.20561,0.560747657 C268.878507,0.0467289714 268.691591,0 268.411217,0 L268.037386,0 C267.570096,0 267.523367,0.140186914 267.429909,0.560747657 L261.962619,45.6074761 C261.822432,46.3084107 262.149535,46.6355135 262.85047,46.6355135 L266.074769,46.6355135 C266.869161,46.6355135 266.962619,46.3551396 267.102806,45.6074761 L270.981311,11.5887849 L288.644862,46.4485976 C289.112152,47.1028032 289.345797,47.4766349 289.859815,47.4766349 L290.420563,47.4766349 C290.934582,47.4766349 291.261684,47.1028032 291.588787,46.4485976 L309.392525,11.495327 Z M355.51402,39.8130836 C354.953272,39.252336 354.719628,39.3925229 353.971964,39.7663547 C350.841123,42.0560743 346.915889,43.0373827 343.738319,43.0373827 C337.102805,43.0373827 331.542058,37.8037379 331.074768,31.7289716 L358.364487,31.7289716 C359.205609,31.7289716 359.345796,31.4485978 359.345796,30.6542052 C359.345796,20.8411212 353.411216,12.6168223 343.177572,12.6168223 C333.644861,12.6168223 326.074768,20.4672895 326.074768,29.9999996 C326.074768,39.5794388 333.644861,47.336448 343.504674,47.336448 C348.364487,47.336448 353.644861,45.794392 356.728973,42.7570088 C357.196263,42.3364481 357.196263,41.9158874 356.728973,41.3551397 L355.51402,39.8130836 Z M331.214955,28.3177567 C331.401871,22.4299063 336.401871,16.7289718 343.130843,16.7289718 C349.813086,16.7289718 354.065422,22.4299063 354.299067,28.3177567 L331.214955,28.3177567 Z" id="Shape"></path>
            </g>
        </g>
    </g>
</svg>