<svg data-v-423bf9ae="" xmlns="http://www.w3.org/2000/svg" viewBox="0 0 359.34579725240786 60" class="font"><!----><!----><!----><g data-v-423bf9ae="" id="6f2a8cb0-9c1c-4198-b135-d0212b86c39a" fill="black" transform="matrix(4.672897140729944,0,0,4.672897140729944,-3.2710223756082826,-15.186915707372314)"><path d="M5.71 12.43C3.53 12.43 1.82 10.44 1.82 8.33C1.82 6.22 3.53 4.23 5.71 4.23C7.01 4.23 8.02 4.80 8.64 5.46C8.75 5.57 8.85 5.57 8.96 5.45L9.37 5.00C9.48 4.87 9.49 4.80 9.38 4.69C8.48 3.79 7.07 3.25 5.71 3.25C2.95 3.25 0.70 5.54 0.70 8.33C0.70 11.12 2.95 13.41 5.71 13.41C7.07 13.41 8.48 12.87 9.38 11.97C9.51 11.84 9.51 11.77 9.39 11.63L8.97 11.19C8.88 11.09 8.79 11.06 8.67 11.17C8.01 11.86 7.01 12.43 5.71 12.43ZM15.18 6.99C15.34 6.99 15.39 6.94 15.43 6.78L15.51 6.15C15.54 6.01 15.51 5.95 15.32 5.95C13.33 5.95 12.68 7.14 12.40 7.73L12.24 6.33C12.17 6.16 12.11 6.10 12.00 6.10L11.65 6.10C11.49 6.10 11.44 6.16 11.44 6.33L11.44 13.01C11.44 13.17 11.49 13.23 11.65 13.23L12.28 13.23C12.43 13.23 12.49 13.17 12.49 13.01L12.49 9.56C12.49 8.26 13.36 6.99 15.18 6.99ZM19.84 11.68L19.82 11.68L17.46 6.33C17.37 6.15 17.32 6.10 17.18 6.10L16.45 6.10C16.30 6.10 16.27 6.16 16.34 6.33L19.26 12.87L17.93 15.86C17.85 16.03 17.89 16.09 18.05 16.09L18.76 16.09C18.90 16.09 18.97 16.04 19.05 15.86L23.30 6.33C23.38 6.16 23.34 6.10 23.18 6.10L22.47 6.10C22.33 6.10 22.26 6.15 22.18 6.33ZM25.80 11.75C25.98 12.14 26.74 13.38 28.39 13.38C30.35 13.38 31.63 11.72 31.63 9.67C31.63 7.64 30.35 5.95 28.39 5.95C26.74 5.95 25.98 7.10 25.65 7.63L25.54 6.33C25.47 6.16 25.42 6.10 25.30 6.10L24.96 6.10C24.81 6.10 24.75 6.16 24.75 6.33L24.75 15.86C24.75 16.03 24.81 16.09 24.96 16.09L25.59 16.09C25.75 16.09 25.80 16.03 25.80 15.86ZM28.20 6.89C29.65 6.89 30.59 8.12 30.59 9.67C30.59 11.12 29.65 12.43 28.20 12.43C26.73 12.43 25.80 11.06 25.80 9.66C25.80 8.27 26.73 6.89 28.20 6.89ZM37.73 13.05C37.86 12.98 37.87 12.92 37.83 12.78L37.74 12.33C37.69 12.14 37.65 12.12 37.46 12.22C37.11 12.40 36.89 12.43 36.50 12.43C35.38 12.43 34.89 11.83 34.89 10.19L34.89 6.97L37.42 6.97C37.59 6.97 37.63 6.92 37.63 6.75L37.63 6.33C37.63 6.15 37.58 6.10 37.42 6.10L34.89 6.10L34.89 4.66C34.89 4.49 34.85 4.44 34.68 4.44L34.06 4.44C33.89 4.44 33.85 4.49 33.85 4.66L33.85 6.10L33.17 6.10C33.00 6.10 32.94 6.15 32.94 6.33L32.94 6.75C32.94 6.92 33.00 6.97 33.17 6.97L33.85 6.97L33.85 10.28C33.85 12.22 34.54 13.38 36.39 13.38C36.57 13.38 37.17 13.38 37.73 13.05ZM45.40 11.77C45.29 11.65 45.23 11.68 45.08 11.76C44.41 12.25 43.57 12.46 42.88 12.46C41.47 12.46 40.28 11.34 40.18 10.04L46.02 10.04C46.20 10.04 46.23 9.98 46.23 9.81C46.23 7.71 44.95 5.95 42.77 5.95C40.73 5.95 39.10 7.63 39.10 9.67C39.10 11.72 40.73 13.38 42.84 13.38C43.88 13.38 45.01 13.05 45.67 12.40C45.77 12.31 45.77 12.22 45.67 12.10ZM40.21 9.31C40.25 8.05 41.31 6.83 42.76 6.83C44.18 6.83 45.09 8.05 45.15 9.31ZM51.95 6.99C52.12 6.99 52.16 6.94 52.21 6.78L52.29 6.15C52.32 6.01 52.29 5.95 52.09 5.95C50.11 5.95 49.46 7.14 49.18 7.73L49.01 6.33C48.94 6.16 48.89 6.10 48.78 6.10L48.43 6.10C48.27 6.10 48.22 6.16 48.22 6.33L48.22 13.01C48.22 13.17 48.27 13.23 48.43 13.23L49.06 13.23C49.21 13.23 49.27 13.17 49.27 13.01L49.27 9.56C49.27 8.26 50.13 6.99 51.95 6.99ZM53.14 12.57C53.14 13.03 53.49 13.38 53.96 13.38C54.40 13.38 54.77 13.03 54.77 12.57C54.77 12.11 54.40 11.75 53.96 11.75C53.49 11.75 53.14 12.11 53.14 12.57ZM66.91 5.71L67.72 13.01C67.73 13.17 67.77 13.23 67.93 13.23L68.61 13.23C68.78 13.23 68.84 13.16 68.82 13.01L67.65 3.37C67.63 3.28 67.62 3.25 67.52 3.25L67.44 3.25C67.38 3.25 67.34 3.26 67.27 3.37L62.79 11.84L58.31 3.37C58.24 3.26 58.20 3.25 58.14 3.25L58.06 3.25C57.96 3.25 57.95 3.28 57.93 3.37L56.76 13.01C56.73 13.16 56.80 13.23 56.95 13.23L57.64 13.23C57.81 13.23 57.83 13.17 57.86 13.01L58.69 5.73L62.47 13.19C62.57 13.33 62.62 13.41 62.73 13.41L62.85 13.41C62.96 13.41 63.03 13.33 63.10 13.19ZM76.78 11.77C76.66 11.65 76.61 11.68 76.45 11.76C75.78 12.25 74.94 12.46 74.26 12.46C72.84 12.46 71.65 11.34 71.55 10.04L77.39 10.04C77.57 10.04 77.60 9.98 77.60 9.81C77.60 7.71 76.33 5.95 74.14 5.95C72.10 5.95 70.48 7.63 70.48 9.67C70.48 11.72 72.10 13.38 74.21 13.38C75.25 13.38 76.38 13.05 77.04 12.40C77.14 12.31 77.14 12.22 77.04 12.10ZM71.58 9.31C71.62 8.05 72.69 6.83 74.13 6.83C75.56 6.83 76.47 8.05 76.52 9.31Z"></path></g><!----><!----></svg>